<?xml version="1.0" encoding="utf-8"?>
<!-- Generator: Adobe Illustrator 16.0.0, SVG Export Plug-In . SVG Version: 6.00 Build 0)  -->
<!DOCTYPE svg PUBLIC "-//W3C//DTD SVG 1.1//EN" "http://www.w3.org/Graphics/SVG/1.1/DTD/svg11.dtd">
<svg version="1.1" id="Layer_1" xmlns="http://www.w3.org/2000/svg" xmlns:xlink="http://www.w3.org/1999/xlink" x="0px" y="0px"
	 width="190px" height="38px" viewBox="0 0 190 38" enable-background="new 0 0 190 38" xml:space="preserve">
<g>
	<g>
		<path fill="#FFFFFF" d="M120.292,32.726l-4.518-7.566h-4.627v6.468h1.425v1.099h-4.496v-1.099h1.535V16.714h-1.535v-1.096h6.339
			c0.701,0,1.326,0.014,1.875,0.044c0.549,0.029,1.033,0.072,1.459,0.131c0.438,0.073,0.837,0.176,1.195,0.307
			c0.357,0.132,0.704,0.307,1.041,0.526c0.482,0.322,0.916,0.798,1.294,1.427c0.381,0.628,0.586,1.322,0.616,2.083
			c0.027,1.331-0.342,2.427-1.109,3.289c-0.769,0.864-1.896,1.403-3.389,1.623l3.927,6.579h1.536v1.099H120.292z M119.339,23.01
			c0.679-0.702,1.021-1.609,1.021-2.721c0-0.673-0.155-1.262-0.461-1.766c-0.309-0.504-0.718-0.903-1.229-1.195
			c-0.482-0.264-1.068-0.431-1.755-0.504c-0.687-0.074-1.57-0.11-2.653-0.11h-3.114v7.348h5.065
			C117.617,24.062,118.66,23.71,119.339,23.01z"/>
		<path fill="#FFFFFF" d="M125.359,27.461c0,0.671,0.105,1.292,0.318,1.864c0.211,0.57,0.515,1.067,0.909,1.49
			c0.381,0.426,0.845,0.755,1.394,0.988c0.549,0.235,1.15,0.35,1.81,0.35c1.301,0,2.357-0.277,3.169-0.832
			c0.812-0.557,1.327-1.185,1.546-1.887h1.207c0,0.03-0.004,0.06-0.012,0.087c-0.008,0.031-0.011,0.059-0.011,0.089
			c-0.146,0.438-0.373,0.878-0.68,1.315c-0.307,0.438-0.701,0.826-1.186,1.162c-0.482,0.351-1.052,0.634-1.71,0.846
			c-0.658,0.211-1.403,0.317-2.236,0.317c-0.892,0-1.711-0.149-2.457-0.449s-1.389-0.729-1.93-1.283
			c-0.556-0.557-0.983-1.229-1.282-2.019c-0.3-0.788-0.451-1.674-0.451-2.652c0-0.893,0.151-1.734,0.451-2.522
			c0.299-0.79,0.727-1.476,1.282-2.063c0.541-0.584,1.188-1.049,1.94-1.392s1.583-0.516,2.49-0.516c0.817,0,1.593,0.149,2.324,0.448
			c0.73,0.301,1.367,0.735,1.908,1.306c0.541,0.585,0.972,1.304,1.293,2.161c0.322,0.854,0.483,1.845,0.483,2.971v0.22H125.359z
			 M134.352,26.363c0-0.644-0.105-1.262-0.317-1.853c-0.213-0.591-0.509-1.12-0.889-1.589c-0.381-0.453-0.844-0.82-1.393-1.098
			s-1.16-0.416-1.831-0.416c-0.673,0-1.287,0.127-1.843,0.382c-0.556,0.258-1.039,0.606-1.448,1.044s-0.723,0.96-0.943,1.568
			c-0.219,0.605-0.328,1.26-0.328,1.961H134.352z"/>
		<path fill="#FFFFFF" d="M149.287,28.996c-0.104,0.57-0.3,1.111-0.592,1.624c-0.294,0.511-0.675,0.964-1.143,1.357
			c-0.479,0.381-1.044,0.685-1.688,0.912c-0.642,0.228-1.358,0.338-2.148,0.338c-0.906,0-1.743-0.157-2.511-0.47
			c-0.768-0.315-1.431-0.758-1.987-1.327c-0.568-0.57-1.008-1.245-1.314-2.028c-0.307-0.782-0.461-1.649-0.461-2.601
			c0-0.92,0.154-1.776,0.461-2.564c0.307-0.79,0.731-1.471,1.272-2.041c0.557-0.569,1.205-1.017,1.953-1.336
			c0.744-0.321,1.563-0.483,2.456-0.483c0.759,0,1.454,0.117,2.083,0.35c0.63,0.235,1.176,0.534,1.643,0.9
			c0.469,0.381,0.856,0.807,1.163,1.283s0.521,0.96,0.637,1.459h-1.117c-0.234-0.745-0.721-1.412-1.458-1.996
			c-0.74-0.587-1.745-0.877-3.016-0.877c-1.347,0-2.439,0.474-3.28,1.426c-0.841,0.948-1.263,2.245-1.263,3.88
			c0,0.849,0.122,1.603,0.364,2.26c0.241,0.66,0.58,1.215,1.021,1.668c0.438,0.452,0.955,0.795,1.555,1.029
			c0.603,0.233,1.251,0.353,1.952,0.353c0.584,0,1.125-0.092,1.624-0.275c0.498-0.182,0.936-0.419,1.316-0.713
			c0.364-0.292,0.668-0.624,0.909-0.998c0.242-0.374,0.406-0.748,0.494-1.129H149.287z"/>
		<path fill="#FFFFFF" d="M158.85,22.241c-0.264-0.189-0.698-0.321-1.305-0.394c-0.606-0.073-1.174,0.008-1.7,0.24
			c-0.292,0.132-0.586,0.32-0.878,0.569s-0.557,0.541-0.79,0.878c-0.246,0.351-0.445,0.742-0.591,1.175
			c-0.146,0.43-0.219,0.895-0.219,1.392v5.525h1.315v1.099h-4.387v-1.099h1.536v-9.431h-1.536v-1.096h3.071v2.148
			c0.131-0.525,0.438-1.021,0.921-1.49c0.482-0.469,1.059-0.797,1.733-0.986c0.276-0.073,0.703-0.118,1.281-0.133
			c0.576-0.013,1.094,0.103,1.547,0.352V22.241z"/>
		<path fill="#FFFFFF" d="M171.374,32.726v-1.8c-0.089,0.249-0.241,0.511-0.46,0.79c-0.223,0.276-0.507,0.533-0.856,0.769
			c-0.367,0.249-0.787,0.449-1.262,0.602c-0.477,0.153-0.998,0.229-1.569,0.229c-1.797,0-3.112-0.474-3.949-1.426
			c-0.832-0.948-1.247-2.337-1.247-4.166v-5.527h-1.534v-1.096h3.069v6.514c0,0.658,0.054,1.265,0.164,1.82
			c0.108,0.556,0.312,1.038,0.604,1.449c0.291,0.407,0.694,0.729,1.205,0.963c0.513,0.233,1.178,0.351,1.995,0.351
			c0.541,0,1.048-0.113,1.515-0.339c0.469-0.228,0.877-0.529,1.229-0.909c0.334-0.381,0.603-0.824,0.799-1.327
			c0.198-0.507,0.299-1.036,0.299-1.591v-5.835h-1.316v-1.096h2.852v10.526h1.535v1.099H171.374z"/>
		<path fill="#FFFFFF" d="M175.868,32.726v-1.099h1.534v-9.431h-1.534v-1.096h3.069v10.526h1.538v1.099H175.868z M177.842,16.175
			c0.832,0,1.484,0.648,1.484,1.472c0,0.832-0.652,1.479-1.484,1.479c-0.817,0-1.468-0.647-1.468-1.479
			C176.374,16.823,177.024,16.175,177.842,16.175z"/>
		<path fill="#FFFFFF" d="M187.076,32.746c-0.043,0.028-0.073,0.044-0.088,0.044c-0.131,0.059-0.293,0.1-0.483,0.121
			c-0.188,0.022-0.373,0.034-0.548,0.034c-1.022,0-1.806-0.275-2.347-0.824c-0.541-0.547-0.813-1.306-0.813-2.271v-7.654h-2.084
			v-1.096h2.084v-4.605h1.538v4.605h2.74v1.096h-2.74v7.699c0,0.789,0.181,1.312,0.546,1.567c0.366,0.257,0.848,0.384,1.449,0.384
			c0.089,0,0.196-0.003,0.327-0.011c0.134-0.007,0.234-0.025,0.307-0.054c0.03,0,0.068-0.016,0.111-0.046V32.746z"/>
	</g>
	<g>
		<path fill="#FFFFFF" d="M24.653,6.974v17.692c0,3.164-0.235,5.617-2.553,7.525c-2.095,1.666-5.414,1.771-6.792,1.771
			c-2.044,0-4.142-0.27-6.181-1.523c-2.858-1.744-3.419-4.293-3.419-8.402V6.974H2.924V6.055h10.934v0.919h-2.839v17.897
			c0,1.637-0.052,2.664,0.357,3.674c0.766,2.105,2.349,3.168,4.634,3.168c1.801,0,3.172-0.463,4.354-1.838
			c1.313-1.49,1.139-3.109,1.139-6.602v-16.3h-2.772V6.055H26.9v0.919H24.653z"/>
		<path fill="#FFFFFF" d="M44.498,24.465c0,3.674-0.631,7.354-3.604,7.492c-1.328,0.063-2.731-0.752-3.602-2.127
			c-0.893-1.385-0.823-4.127-0.823-5.365c0-0.924-0.12-3.781,0.696-5.218c0.75-1.423,2.299-2.545,3.729-2.545
			c2.246,0,3.217,2.45,3.356,3.165C44.417,20.889,44.498,23.441,44.498,24.465z M29.688,6.002v0.944h2.167v24.872h-2.759v0.916
			h7.253v-2.279c0.868,1.385,2.149,2.688,5.312,2.688c2.093,0,4.391-0.609,5.974-2.652c1.634-2.045,1.736-4.912,1.736-6.025
			c0-4.96-1.584-8.885-7.762-8.885c-2.809,0-4.137,1.325-5.209,2.552V6.002H29.688z"/>
		<path fill="#FFFFFF" d="M58.921,15.987v15.831h2.328v0.916h-9.324v-0.916h2.473V16.905h-2.524v-0.918H58.921z M56.521,4.419
			c1.772,0,3.166,1.379,3.166,3.134c0,1.77-1.394,3.149-3.166,3.149c-1.736,0-3.124-1.38-3.124-3.149
			C53.396,5.798,54.784,4.419,56.521,4.419z"/>
		<path fill="#FFFFFF" d="M90.199,15.987v2.348c0.817-0.918,1.43-1.633,2.859-2.244c1.124-0.411,2.044-0.511,2.758-0.511
			c0.307,0,1.124,0,2.071,0.279c2.935,0.843,2.935,3.09,2.935,4.639v11.32h2.421v0.916h-8.959v-0.916h2.044V21.197
			c0-2.045,0-3.984-2.178-3.984c-1.295,0-3.336,1.226-3.85,3.285c-0.102,0.615-0.102,1.307-0.102,2.943v8.377h2.325v0.916h-9.342
			v-0.916h2.492V16.905h-2.559v-0.918H90.199z"/>
		<path fill="#FFFFFF" d="M81.007,24.465c0,4.797-2.961,8.678-8.656,8.678c-5.668,0-8.604-3.881-8.604-8.678v-0.924
			c0-4.796,2.936-8.653,8.604-8.653c5.695,0,8.656,3.857,8.656,8.653V24.465z M75.99,22.229c0-3.541-0.473-6.444-3.64-6.444
			c-3.166,0-3.6,2.903-3.6,6.444v3.564c0,3.576,0.434,6.434,3.6,6.434c3.167,0,3.64-2.857,3.64-6.434V22.229z"/>
		<path fill="#FFFFFF" d="M107.512,8.531c0,2.453-1.991,4.493-4.471,4.493c-2.527,0-4.479-2.04-4.479-4.493
			c0-2.477,1.951-4.494,4.479-4.494C105.521,4.037,107.512,6.055,107.512,8.531z M103.041,4.641c-2.141,0-3.875,1.746-3.875,3.891
			s1.734,3.882,3.875,3.882c2.135,0,3.87-1.737,3.87-3.882S105.176,4.641,103.041,4.641z"/>
		<path fill="#FFFFFF" d="M105.11,6.671h-1.531v0.532c0,0,0.379,0,0.512,0c0,0.29,0,1.635,0,1.635c0,0.627,0,0.907-0.204,1.122
			c-0.132,0.187-0.409,0.281-0.717,0.281c-0.271,0-0.661-0.076-0.816-0.458l0,0c-0.038-0.13-0.038-0.334-0.038-0.641
			c0,0,0-1.634,0-1.939c0.141,0,0.549,0,0.549,0V6.671h-2.451v0.532c0,0,0.409,0,0.511,0c0,0.294,0,1.734,0,1.734
			c0,0.819,0.132,1.331,0.719,1.738c0.506,0.233,0.915,0.308,1.299,0.308c0.586,0,1.046-0.142,1.354-0.409
			c0.51-0.409,0.53-0.944,0.53-1.532c0,0,0-1.533,0-1.839c0.139,0,0.427,0,0.427,0V6.671H105.11z"/>
	</g>
</g>
</svg>
